<svg xmlns="http://www.w3.org/2000/svg" width="374.426" height="67.144" viewBox="0 0 374.426 67.144"><defs><clipPath id="a"><path fill="none" d="M0 0h53.484v58.774H0z"/></clipPath><clipPath id="b"><path fill="none" d="M0 0h374.426v67.144H0z"/></clipPath><clipPath id="c"><path fill="none" d="M0 0h53.036v58.774H0z"/></clipPath></defs><path fill="#ffa900" d="M9.158 5.912h60.655v61.232H9.158z"/><path fill="#fff" d="M3.303 0H66.97v64.276H3.303z"/><path fill="#0a0b0a" d="M4.81 1.521h60.655v61.23H4.81z"/><path fill="none" stroke="#161615" stroke-miterlimit="3.864" stroke-width=".15" d="M45.47 9.544h-.013"/><g clip-path="url(#a)" transform="translate(11.98 1.521)"><path d="M40.456 16.325l-4.02-3.66c-2.334 2.883-4.279 11.54-4.279 11.54-15.764.678-23.2-.949-23.2-.949l-.7-1.3a18.58 18.58 0 01-5.046-2.377c13.219 1.849 26.461-2.21 34.7-5.152l8.651-2.848a92.461 92.461 0 00-23.115 23.8s6.637-5.86 20.564-6.685c0 0 7.762-10.876 29.611-4.214l1.346-1.08 4.122-.341-2.94-1.188s-16.449-8.103-35.694-5.546" fill="#fff"/></g><g clip-path="url(#b)"><path d="M29.434 18.401a60.58 60.58 0 01-13.8 1.295 73.34 73.34 0 01-14.188-1.295L.034 16.582h30.8z" fill="#ffa900"/><path d="M29.434 18.401a60.58 60.58 0 01-13.8 1.295 73.34 73.34 0 01-14.188-1.295L.034 16.582h30.8z" fill="none" stroke="#ffa900" stroke-miterlimit="3.864" stroke-width=".027"/><path d="M5.847 15.182a41.959 41.959 0 0011.017-4.184c4.067-2.444 10.615-6.448 16.972-6.046-5.706.328-11.073 4.2-14.793 6.4-5.328 3.149-13.196 3.83-13.196 3.83M49.515 13.5l1.59-2.632-1.741-.231c1.8-2.968 3.01-4.726 3.01-4.726l-.934-.749s5.073-.388 8.206 1.427c.055.022 1.434.847.755 2.034a14.724 14.724 0 01-2.621 3.057c-1.025.969-2.972 2.085-8.265 1.82" fill="#fff"/></g><g clip-path="url(#c)" fill="#fff" transform="translate(12.429 1.521)"><path d="M4.399 12.22a41.409 41.409 0 0011-4.19c4.085-2.422 10.627-6.439 16.98-6.027-5.72.322-11.08 4.196-14.792 6.39-5.316 3.145-13.188 3.827-13.188 3.827m39.166 17.817s11.466 17.651 26.243 21.527l-5.918 7.033.183-4.436a56.285 56.285 0 01-24.581-13.007S20.565 48.73 11.265 58.597H.565l8.322-4.716a57.774 57.774 0 0134.678-23.844"/></g><g clip-path="url(#b)"><path d="M227.702 50.252v-33.36h7.613c5.613 0 8.354 3.326 8.354 9.793 0 3.84-1.066 6.656-4.085 8.343l5.105 15.224h-5.013L235.27 36.01h-2.833v14.242zm4.734-28.863v10.4h2.692c3.294 0 3.806-1.874 3.806-5.2 0-3.376-.556-5.2-4.039-5.2zm-16.233-4.497h4.738v33.36h-4.738zm-24.34 33.36l7.378-33.36h3.942l7.384 33.36h-4.738l-1.391-7.169h-6.451l-1.393 7.169zm11.693-11.665l-2.319-12.089h-.094l-2.322 12.089zm-33.53 11.665v-33.36h4.545l7.15 20.1h.093v-20.1h4.733v33.36h-4.456L174.849 30.2h-.09v20.052zm-18.641-25.487v17.619a3.207 3.207 0 106.4 0V24.765a3.207 3.207 0 10-6.4 0m-4.736 17.619V24.765a7.939 7.939 0 1115.873 0v17.619a7.939 7.939 0 11-15.873 0m-17.598-20.995v9.183h2.134c3.156 0 3.992-1.636 3.992-4.683 0-2.952-1.068-4.5-4.179-4.5zm0 13.4v10.685h2.039c3.807 0 4.087-2.341 4.087-5.621 0-3.328-.6-5.063-4.038-5.063zm-4.73 15.463v-33.36h6.912c6.128 0 8.4 4.076 8.4 8.436v1.217c0 3.559-1.162 4.875-3.25 6.184 2.228 1.079 3.25 3.091 3.25 6.561v1.873c0 5.81-2.739 9.089-8.869 9.089zm-21.021 0v-33.36h14.108v4.5h-9.378v9.8h8.17v4.5h-8.17v9.792h9.378v4.778zM85.754 21.389v24.366h2.183c2.645 0 3.665-1.309 3.665-4.171V25.51c0-2.624-.882-4.125-3.665-4.125zm-4.733 28.863v-33.36h7.006c5.338 0 8.31 3.233 8.31 8.622v15.6c0 6.185-3.158 9.136-8.728 9.136zm184.607-26.1v2.346h-4.734v-1.077c0-2.205-.928-4.032-3.34-4.032-2.6 0-3.2 2.109-3.2 4.31 0 2.577.233 3.469 2.692 4.451l3.614 1.46c4.178 1.593 4.968 4.262 4.968 9.137 0 5.621-2.041 9.793-8.169 9.793a7.838 7.838 0 01-8.075-7.919v-1.78h4.737v1.5a3.136 3.136 0 003.341 3.421c3.2 0 3.434-1.92 3.434-4.967 0-3.562-.418-4.122-2.738-5.06l-3.387-1.407c-4.083-1.687-5.153-4.4-5.153-8.572.003-5.07 2.692-9.146 8.123-9.146a7.776 7.776 0 017.887 7.545" fill="#fff"/><path d="M336.02 50.252v-4.215l8.916-24.645h-8.449v-4.5h13.6v3.794l-9.1 25.07h9.1v4.5zm-20.3 0v-4.215l8.91-24.645h-8.446v-4.5h13.6v3.794l-9.095 25.07h9.095v4.5zm-11.644-33.36h4.728v33.36h-4.728zm-17.14 4.5v11.34h2.274c3.854 0 3.9-2.295 3.9-5.624 0-3.14 0-5.716-3.712-5.716zm-4.732 28.86v-33.36h7.1a7.651 7.651 0 016.126 2.344c1.624 1.732 2.133 3.84 2.133 7.823 0 2.905-.231 4.874-1.343 6.7-1.3 2.155-3.391 3.466-6.871 3.466h-2.413v13.027zm85.217-11.666l-2.323-12.088h-.094l-2.32 12.088zm-11.697 11.666l7.38-33.36h3.944l7.376 33.36h-4.73l-1.39-7.169h-6.45l-1.395 7.169z" fill="#ffa900"/></g></svg>