<?xml version="1.0" standalone="no"?><svg xmlns="http://www.w3.org/2000/svg" viewBox="0 0 1440 320"><path fill="#1c73aa" fill-opacity="1" d="M0,32L21.8,58.7C43.6,85,87,139,131,165.3C174.5,192,218,192,262,181.3C305.5,171,349,149,393,165.3C436.4,181,480,235,524,240C567.3,245,611,203,655,202.7C698.2,203,742,245,785,245.3C829.1,245,873,203,916,181.3C960,160,1004,160,1047,170.7C1090.9,181,1135,203,1178,213.3C1221.8,224,1265,224,1309,229.3C1352.7,235,1396,245,1418,250.7L1440,256L1440,320L1418.2,320C1396.4,320,1353,320,1309,320C1265.5,320,1222,320,1178,320C1134.5,320,1091,320,1047,320C1003.6,320,960,320,916,320C872.7,320,829,320,785,320C741.8,320,698,320,655,320C610.9,320,567,320,524,320C480,320,436,320,393,320C349.1,320,305,320,262,320C218.2,320,175,320,131,320C87.3,320,44,320,22,320L0,320Z"></path></svg>